# xmcd CD database file
#
# Track frame offsets:
#	150
#	11659
#	24030
#	38310
#	52052
#	64421
#	75184
#	88244
#	100529
#	112999
#	126144
#	139653
#	151883
#	165011
#	175290
#	186894
#	198708
#	212584
#	224321
#	234047
#	243006
#	256959
#	266477
#	278235
#	291232
#	304668
#
# Disc length: 4235 seconds
#
# Revision: 0
# Processed by: cddbd v1.5.2PL0 Copyright (c) Steve Scherf et al.
# Submitted via: CDex 1.51
#
DISCID=5110891a
DTITLE=Little Walter - Charly Blues - Master Works - Little Walter
DYEAR=2009
DGENRE=Blues
TTITLE0=My Babe
TTITLE1=Juke
TTITLE2=Sad Hours
TTITLE3=You're So Fine
TTITLE4=Key to the Highway
TTITLE5=Who
TTITLE6=Roller-Coaster
TTITLE7=Last Night
TTITLE8=Tell Me Mama
TTITLE9=Mean Old World
TTITLE10=Confessin' the Blues
TTITLE11=Boom, Boom (Out Goes the Lights)
TTITLE12=It Ain't Right
TTITLE13=Hate to See You Go
TTITLE14=Too Late
TTITLE15=Mellow Down Easy
TTITLE16=Blues with a Feeling
TTITLE17=The Toddle
TTITLE18=Rock Bottom
TTITLE19=Temperature
TTITLE20=Take Me Back
TTITLE21=Nobody But You
TTITLE22=It's Too Late Brother
TTITLE23=Everybody Needs Somebody
TTITLE24=Can't Hold Out Much Longer
TTITLE25=Just a feeling
EXTD=YEAR: 2009
EXTT0=
EXTT1=
EXTT2=
EXTT3=
EXTT4=
EXTT5=
EXTT6=
EXTT7=
EXTT8=
EXTT9=
EXTT10=
EXTT11=
EXTT12=
EXTT13=
EXTT14=
EXTT15=
EXTT16=
EXTT17=
EXTT18=
EXTT19=
EXTT20=
EXTT21=
EXTT22=
EXTT23=
EXTT24=
EXTT25=
PLAYORDER=
